# xmcd CD database file generated by MAGIX-FreeDB-PlayR v2.0beta1
# 
# Track frame offsets:
#      180
#      39552
#      67401
#      80162
#      97413
#      128305
#      165363
#      209055
#      231364
#      265816
# 
# Disc length: 4256 seconds
# 
# Revision: 2 
# Processed by: cddbd v1.5.2PL0 Copyright (c) Steve Scherf et al.
# Submitted via: MAGIX-FreeDB-PlayR v2.0beta1
# 
DISCID=94109e0a
DTITLE=Pete York`s Blue Jive Five - Live - "Listen here!"
DYEAR=1996
DGENRE=Blues
TTITLE0=Pete York`s Blue Jive Five - Listen Here
TTITLE1=Pete York`s Blue Jive Five - Daydream
TTITLE2=Pete York`s Blue Jive Five - Buddy Bolden`s Blues
TTITLE3=Pete York`s Blue Jive Five - Milenberg Joys
TTITLE4=Pete York`s Blue Jive Five - Shiny Stockings
TTITLE5=Pete York`s Blue Jive Five - Blues March
TTITLE6=Pete York`s Blue Jive Five - Skylark
TTITLE7=Pete York`s Blue Jive Five - Tulip or Turnip
TTITLE8=Pete York`s Blue Jive Five - It`s All Over Now
TTITLE9=Pete York`s Blue Jive Five - Sleigh Ride
EXTD=
EXTT0=
EXTT1=
EXTT2=
EXTT3=
EXTT4=
EXTT5=
EXTT6=
EXTT7=
EXTT8=
EXTT9=
PLAYORDER=
